<svg id="Layer_1" data-name="Layer 1" xmlns="http://www.w3.org/2000/svg" viewBox="0 0 205.27 223.14"><defs><style>.cls-1{fill:#4d4962;}.cls-2{fill:#fffbe9;}</style></defs><title>Untitled-1</title><path class="cls-1" d="M608.33,319.76c-34-19.2-77.05-11.17-109.31,7.23-37.32,21.28-52.82,65.23-59.37,105.51-3.67,22.59-4.19,46.95,4.56,68.47,3.71,9.12,10,17.84,18.36,23.24,8.79,5.69,19.48,7.39,29.76,7.61,24.91.55,50.34-8.48,72.5-19.14,22.79-11,42.17-26.68,56.39-47.76,15.26-22.6,22.17-49.48,21.09-76.61C641.23,361.43,633,333.68,608.33,319.76Z" transform="translate(-437.14 -308.71)"/><path class="cls-2" d="M602.43,369.75c-.67.84.25,3.54,1.16,2.38C604.26,371.29,603.35,368.59,602.43,369.75Z" transform="translate(-437.14 -308.71)"/><path class="cls-2" d="M603.74,362.61a2,2,0,0,0-.09,2c.23.47.82.92,1.24.38a2,2,0,0,0,.09-2C604.75,362.53,604.16,362.08,603.74,362.61Z" transform="translate(-437.14 -308.71)"/><path class="cls-2" d="M595.55,361.23a2,2,0,0,0,.7,3c.86.32.94-.83.79-1.68a2.35,2.35,0,0,0-.23-1C596.59,361.17,596,360.65,595.55,361.23Z" transform="translate(-437.14 -308.71)"/><path class="cls-2" d="M586.7,355l-.11-.05a1.15,1.15,0,0,0-.26,0,.58.58,0,0,0-.19,0,.79.79,0,0,0-.39.26,2.51,2.51,0,0,0-.27,2.17,2,2,0,0,0,.64,1.05c.16.12.72.36.89.09.35-.57.59-.7.63-1.39v0a2.45,2.45,0,0,0,0-.46l0-.11a1.55,1.55,0,0,0-.07-.31,2.29,2.29,0,0,0-.12-.37c0-.05,0-.09,0-.13a1.88,1.88,0,0,0-.12-.18c0-.06-.06-.13-.1-.18A1.09,1.09,0,0,0,586.7,355Z" transform="translate(-437.14 -308.71)"/><path class="cls-2" d="M593.08,353.28c-.48.6.17,2.5.82,1.69C594.37,354.37,593.72,352.47,593.08,353.28Z" transform="translate(-437.14 -308.71)"/><path class="cls-2" d="M598.86,354c-.57.71.21,3,1,2C600.41,355.26,599.63,353,598.86,354Z" transform="translate(-437.14 -308.71)"/><path class="cls-2" d="M594,370.67c-.69.88.25,3.66,1.2,2.47C595.91,372.26,595,369.48,594,370.67Z" transform="translate(-437.14 -308.71)"/><path class="cls-2" d="M587.78,365.92c-.77.09-.75,1.33-.6,1.85s.78,1.36,1.32.69a1.28,1.28,0,0,0,.24-.53c-.09.3-.08.34,0,.11a1.22,1.22,0,0,0,0-.86C588.7,366.85,588.45,365.84,587.78,365.92Z" transform="translate(-437.14 -308.71)"/><path class="cls-2" d="M582.92,373.13h0c-1-.17-1,1.52-.7,2.13a1.37,1.37,0,0,0,.48.58.62.62,0,0,0,.95-.32,1.88,1.88,0,0,0,0-1.49.25.25,0,0,0,0-.08l-.08-.15c0,.06.06.11.08.14C583.54,373.51,583.34,373.09,582.92,373.13Z" transform="translate(-437.14 -308.71)"/><path class="cls-2" d="M583.61,373.93h0C583.66,374,583.67,374,583.61,373.93Z" transform="translate(-437.14 -308.71)"/><path class="cls-2" d="M590.58,380.85a4.2,4.2,0,0,0-.17,4.2c.48,1,1.71,1.93,2.61.8a4.22,4.22,0,0,0,.17-4.21C592.72,380.66,591.48,379.71,590.58,380.85Z" transform="translate(-437.14 -308.71)"/><path class="cls-2" d="M601.28,388.13a2.94,2.94,0,0,0,.21,1.87c.16.31.62,1,1.07.81l.15-.05c1-.37.95-1.81.58-2.65l-.09-.21C602.7,386.76,601.54,387,601.28,388.13Z" transform="translate(-437.14 -308.71)"/><path class="cls-2" d="M607.19,390.76a1.11,1.11,0,0,1,0-.17c-.08.41,0,1.56.7,1.47a1,1,0,0,0,.46-.15c.68-.44.52-1.67.09-2.23C607.66,388.68,607.15,390.11,607.19,390.76Z" transform="translate(-437.14 -308.71)"/><path class="cls-2" d="M608.47,378.83c-.72.08-.63,1.34-.39,1.78a1.16,1.16,0,0,0,.86.72c.58.11.59-.86.39-1.19a.44.44,0,0,0-.06-.1C609.25,379.49,609.06,378.76,608.47,378.83Z" transform="translate(-437.14 -308.71)"/><path class="cls-2" d="M593.35,393.79a2.87,2.87,0,0,0,1.18,3.19l.25.13c.71.37,1.24-.65,1.35-1.16a3.1,3.1,0,0,0-.5-2.59l-.23-.26C594.56,392.17,593.61,392.65,593.35,393.79Z" transform="translate(-437.14 -308.71)"/><path class="cls-2" d="M600.76,400a1.59,1.59,0,0,0-.43.16,1.82,1.82,0,0,0-.57,1.74c.06.5.47,1.8,1.23,1.6a1.11,1.11,0,0,0,.8-.74,2.46,2.46,0,0,0,.07-1.65C601.75,400.71,601.33,399.84,600.76,400Z" transform="translate(-437.14 -308.71)"/><path class="cls-2" d="M614.18,400.78H614c-.23,0-.45.27-.53.46a2.1,2.1,0,0,1-.37.87.67.67,0,0,0,.18.94c.42.17.56.43,1,.43s.56-.47.62-.75l.06-.23C615.14,401.94,615,400.77,614.18,400.78Z" transform="translate(-437.14 -308.71)"/><path class="cls-2" d="M619.54,384.76a2.42,2.42,0,0,0-.09,2.77.37.37,0,0,0,.6.06,4.91,4.91,0,0,0,.66-.91C621,386,620.49,383.79,619.54,384.76Z" transform="translate(-437.14 -308.71)"/><path class="cls-2" d="M616.77,363.36c-.38-.3-.71.1-.79.46a1.39,1.39,0,0,0,.37,1.35.41.41,0,0,0,.48.05l.07,0h0c.46,0,.36-.84.24-1.09h0s0-.09,0-.16A1.08,1.08,0,0,0,616.77,363.36Z" transform="translate(-437.14 -308.71)"/><path class="cls-2" d="M614.08,371.66a.76.76,0,0,0-.61,0,1.26,1.26,0,0,0-.86.95,2.18,2.18,0,0,0,.43,2.37l-.24-.28c.17.35.63,1,1.12.85a1.49,1.49,0,0,0,1-.85A2.36,2.36,0,0,0,614.08,371.66Z" transform="translate(-437.14 -308.71)"/><path class="cls-2" d="M624.4,375.83c-.21.91,0,3.23,1.27,3.43a2,2,0,0,0,.72,0c1.22-.29,1.15-1.95.94-2.89a2.51,2.51,0,0,0-1.06-1.67C625.33,374.16,624.62,374.88,624.4,375.83Z" transform="translate(-437.14 -308.71)"/><path class="cls-2" d="M613.34,351.77l-.12,0c-1.33-.39-1.17,2-.86,2.61.63,1.29,1.77.58,1.8-.61a.81.81,0,0,0,0-.22A1.8,1.8,0,0,0,613.34,351.77Z" transform="translate(-437.14 -308.71)"/><path class="cls-2" d="M622.31,357l-.12,0c-.76-.24-.57,1.21-.34,1.52l.1.15c.3.61.92.55,1.08-.12C623.14,358,623,357,622.31,357Z" transform="translate(-437.14 -308.71)"/><path class="cls-2" d="M459.58,447.76v0c-1.11,1.72-1.05,4.69.69,6a1.47,1.47,0,0,0,2.12-.24,4.64,4.64,0,0,0,.51-4.07s0,0,0,0a3.82,3.82,0,0,0-1.2-2A1.43,1.43,0,0,0,459.58,447.76Z" transform="translate(-437.14 -308.71)"/><path class="cls-2" d="M458.4,440s0,.09,0,.13c.09.69.71,2.33,1.72,1.73s.77-2.55.14-3.36l-.06-.08C459.12,437,458.27,439,458.4,440Z" transform="translate(-437.14 -308.71)"/><path class="cls-2" d="M451.79,440.52h-.07a.44.44,0,0,0-.33.29,1.54,1.54,0,0,0,.35,1.63c.79.87,1.28-1.13.51-1.56h0C452.16,440.67,452,440.49,451.79,440.52Z" transform="translate(-437.14 -308.71)"/><path class="cls-2" d="M466.22,434.08a3.58,3.58,0,0,0-.56.47c-.18.22-.23.65-.47.82a.78.78,0,0,0,.14,1.2,1.41,1.41,0,0,1,.44.33,2.44,2.44,0,0,0,.83.43c.42.15.77-.2.93-.55a2.35,2.35,0,0,0-.27-2.38C467.06,434.1,466.56,433.82,466.22,434.08Z" transform="translate(-437.14 -308.71)"/><path class="cls-2" d="M478.57,448.66a2.67,2.67,0,0,0-.17,1.51,2.9,2.9,0,0,0,.08.41.06.06,0,0,1,0,0v0a0,0,0,0,0,0,0c0,.06,0,.13.07.2a1.92,1.92,0,0,0,.75,1h0a.68.68,0,0,0,.2.07.58.58,0,0,0,.26,0l.22-.08c.87-.3,1-1.49.74-2.27,0-.1-.07-.19-.1-.29C480.33,448.37,479.21,447.26,478.57,448.66Z" transform="translate(-437.14 -308.71)"/><path class="cls-2" d="M482.47,460.15a2.18,2.18,0,0,0-.1,2.17c.25.51.89,1,1.35.42a2.18,2.18,0,0,0,.09-2.17C483.56,460.06,482.93,459.57,482.47,460.15Z" transform="translate(-437.14 -308.71)"/><path class="cls-2" d="M474.06,460.83c-.78-.19-.95.91-.89,1.45s.55,1.74,1.2,1.21c.19-.15.47-.08.66-.29a1,1,0,0,0,.21-.75A1.79,1.79,0,0,0,474.06,460.83Z" transform="translate(-437.14 -308.71)"/><path class="cls-2" d="M466.91,468.85c-1.42-.42-1.51,3.13.11,3.28.57.06.66-.35,1.06-.65a1.21,1.21,0,0,0-.06-1.74C467.56,469.47,467.47,469,466.91,468.85Z" transform="translate(-437.14 -308.71)"/><path class="cls-2" d="M457.1,466.58s0,0-.06,0l-.1,0h0c-.59.12-.36,1.16-.18,1.52s.37.49.68.36h.13c.41,0,.32-.75.22-1S457.47,466.65,457.1,466.58Z" transform="translate(-437.14 -308.71)"/><path class="cls-2" d="M467.47,455.88a2.21,2.21,0,0,0-.09,2.21c.25.52.9,1,1.37.42a2.21,2.21,0,0,0,.09-2.21C468.59,455.79,467.94,455.29,467.47,455.88Z" transform="translate(-437.14 -308.71)"/><path class="cls-2" d="M469.84,442.94c-1.35,1.69.48,7.08,2.31,4.78C473.5,446,471.66,440.64,469.84,442.94Z" transform="translate(-437.14 -308.71)"/><path class="cls-2" d="M451.27,453.86c-.37-.47-1-.78-1.43-.19a10,10,0,0,0,1.23.62c.16.73.33,1.47.5,2.2a2.34,2.34,0,0,0,.19-.87,2.92,2.92,0,0,0-.28-1.45l0,0a1,1,0,0,0-.15-.25Z" transform="translate(-437.14 -308.71)"/><path class="cls-2" d="M463.19,476.93a.47.47,0,0,1-.17,0c-.9-.29-1.3.92-1.32,1.57v.07c0,.68.22,2.17,1.1,2.32a1,1,0,0,0,1.08-.46,2.78,2.78,0,0,0-.07-2.95A.87.87,0,0,0,463.19,476.93Z" transform="translate(-437.14 -308.71)"/><path class="cls-2" d="M474.88,482.12a.67.67,0,0,0-.74.24,1.22,1.22,0,0,0-.63.45,1.25,1.25,0,0,0,.06,1.42,4.24,4.24,0,0,0,.49.46,2.59,2.59,0,0,0,.57.73c.61.55,1.2-.21,1.33-.77a2.21,2.21,0,0,0-.91-2.44Z" transform="translate(-437.14 -308.71)"/><path class="cls-2" d="M455.14,486.75l-.14,0c-1.46-.2-1.56,1.85-1.28,2.84a2,2,0,0,0,1.07,1.4,1,1,0,0,0,1.2-.7,1.18,1.18,0,0,1,.07-.2,3.21,3.21,0,0,0,.08-2C456,487.64,455.67,486.83,455.14,486.75Z" transform="translate(-437.14 -308.71)"/><path class="cls-2" d="M508.42,351.57l0,0-.18-.15-.11,0-.15,0a.85.85,0,0,0-.33.07l-.22.12c-.41.19-.38.92-.28,1.27l.12.39c.27.93,1.3,1.33,1.56.16a2,2,0,0,0,0-.37l0,0a3.88,3.88,0,0,0-.08-.59A1.84,1.84,0,0,0,508.42,351.57Z" transform="translate(-437.14 -308.71)"/><path class="cls-2" d="M516.22,359.21c-.83-.37-.73,1.35-.56,1.69a3.86,3.86,0,0,1,.22.89c.1.36.38.94.8,1l.15,0c1.19.26,1-1.66.75-2.26A2.66,2.66,0,0,0,516.22,359.21Z" transform="translate(-437.14 -308.71)"/><path class="cls-2" d="M508.77,367.1c-1.06-.42-.92,1.67-.7,2.12s.57.78,1,.52a1,1,0,0,0,.42-.68,1.08,1.08,0,0,0,0-1.31A1.8,1.8,0,0,0,508.77,367.1Z" transform="translate(-437.14 -308.71)"/><path class="cls-2" d="M517.82,377.64a1,1,0,0,1,0-.1,1.81,1.81,0,0,0,.63,2.28.28.28,0,0,0,.15,0c1.06.14,1.14-1.33.93-2.05C519.28,376.77,518.12,376.34,517.82,377.64Z" transform="translate(-437.14 -308.71)"/><path class="cls-2" d="M530.17,421.77h-.1a1,1,0,0,0-.67.4c-.12.19-.25.38-.35.58a3.38,3.38,0,0,0,.1,2.8c.26.54,1,1.36,1.67.87a2.51,2.51,0,0,0,.94-2C531.87,423.34,531.36,421.9,530.17,421.77Z" transform="translate(-437.14 -308.71)"/><path class="cls-2" d="M536.21,414.26c-.34.18-.22.47-.32.75s0,1.09.42.87l0,0a.42.42,0,0,0,.47-.28.25.25,0,0,1,0-.07C537,415.23,536.87,413.9,536.21,414.26Z" transform="translate(-437.14 -308.71)"/><path class="cls-2" d="M542.68,420.19l-.24.32a.66.66,0,0,0,.11,1h0c.09.5.35,1.25,1,1.2h.08c.86-.07.82-1.47.66-2C544.05,419.87,543.2,419.2,542.68,420.19Z" transform="translate(-437.14 -308.71)"/><path class="cls-2" d="M536,424.12a1.94,1.94,0,0,0,.21,1.85.71.71,0,0,0,.6.32l.1,0h.17c.65,0,.5-1.24.34-1.55a0,0,0,0,1,0,0,1.77,1.77,0,0,0-.3-.71A.61.61,0,0,0,536,424.12Z" transform="translate(-437.14 -308.71)"/><path class="cls-2" d="M554.58,333.5c-1.08,1.36.39,5.68,1.86,3.83C557.51,336,556,331.66,554.58,333.5Z" transform="translate(-437.14 -308.71)"/><path class="cls-2" d="M557.42,342a2.39,2.39,0,0,0-.75,2.3.06.06,0,0,1,0,0c.12.79.81,2.71,2,2s.92-2.52.43-3.44l0,0C558.77,342.29,558.14,341.56,557.42,342Z" transform="translate(-437.14 -308.71)"/><path class="cls-2" d="M551.35,342c-1.11-.69-1.42.89-1.39,1.67a1.62,1.62,0,0,1,0,.22,2,2,0,0,0,1,1.72c.59.18.8,0,1.28-.34.78-.49.47-2-.22-2.39A2.37,2.37,0,0,0,551.35,342Z" transform="translate(-437.14 -308.71)"/><path class="cls-2" d="M539.23,330.33c-.31.39.12,1.64.54,1.11S539.66,329.79,539.23,330.33Z" transform="translate(-437.14 -308.71)"/><path class="cls-2" d="M462,390.24c-.72-.32-1.22.61-1.34,1.14a3.16,3.16,0,0,0,.5,2.57c.35.4.65.72,1.22.67s.87-.7,1-1.17a3.27,3.27,0,0,0-.49-2.54A1.78,1.78,0,0,0,462,390.24Z" transform="translate(-437.14 -308.71)"/><path class="cls-2" d="M465.57,377.09a2.17,2.17,0,0,0-.11,2.15l1.54.19a2,2,0,0,0,.16-.72,2.46,2.46,0,0,0-.23-1.2C466.68,377,466,376.5,465.57,377.09Z" transform="translate(-437.14 -308.71)"/><path class="cls-2" d="M477.94,390Z" transform="translate(-437.14 -308.71)"/><path class="cls-2" d="M478.58,388.76a.38.38,0,0,1-.15,0c-.46,0-.52.61-.49,1.05V390s0,.11,0,.18h0c0-.08,0-.14,0-.18a2.2,2.2,0,0,0,0,.36,1.37,1.37,0,0,0,.72,1.2c.43.14.75-.33.81-.71l0-.13C479.57,390.22,479.46,388.53,478.58,388.76Z" transform="translate(-437.14 -308.71)"/><path class="cls-2" d="M468.5,390.42l-.06.07c-.6.59-.3,2.5.7,2.49h.08C470.64,393,469.74,389.2,468.5,390.42Z" transform="translate(-437.14 -308.71)"/><path class="cls-2" d="M467,400.09l-.09,0a.85.85,0,0,0-.76.2c-.89.83-1,3.34.46,3.73a1,1,0,0,0,1.08-.38C468.34,402.84,468.24,400.33,467,400.09Z" transform="translate(-437.14 -308.71)"/><path class="cls-2" d="M466,400.38c0-.06.1-.07.15-.11l0,0Z" transform="translate(-437.14 -308.71)"/><path class="cls-2" d="M526.89,483.31a2.13,2.13,0,0,0-.09,2.13c.24.49.87,1,1.32.4a2.16,2.16,0,0,0,.09-2.13C528,483.21,527.34,482.73,526.89,483.31Z" transform="translate(-437.14 -308.71)"/><path class="cls-2" d="M534.39,474.39c-.77-.25-1,.78-1.1,1.32s.09,1.85.8,2.1l1.23-1.88A1.77,1.77,0,0,0,534.39,474.39Z" transform="translate(-437.14 -308.71)"/><path class="cls-2" d="M545.85,486.18l-.11,0c-1.72-.41-1.44,2.46-1.09,3.31l.07.16c.43,1,1.64,1.34,2.15.21C547.31,488.86,547.19,486.5,545.85,486.18Z" transform="translate(-437.14 -308.71)"/><path class="cls-2" d="M535.64,485.84l0,0c-.78.38-.59,2.48.3,2.64a1.53,1.53,0,0,0,.49,0c.76-.12.61-1.35.4-1.83,0-.09-.09-.19-.14-.28C536.45,486,536.09,485.62,535.64,485.84Z" transform="translate(-437.14 -308.71)"/><path class="cls-2" d="M527.88,498.33a2.37,2.37,0,0,0-.09,2.36c.26.54,1,1.07,1.45.44a2.37,2.37,0,0,0,.1-2.35C529.07,498.23,528.38,497.7,527.88,498.33Z" transform="translate(-437.14 -308.71)"/><path class="cls-2" d="M544.57,503.1c-.81-.26-1.14.64-1.24,1.35a.9.9,0,0,0-.15.71,3.09,3.09,0,0,0,.9,1.6c.95.73,1.55-.6,1.58-1.36S545.43,503.38,544.57,503.1Z" transform="translate(-437.14 -308.71)"/><path class="cls-2" d="M555.54,500.37c-.38.19-.54.62-.86.83-.54.34-.48,1.82.22,2a4,4,0,0,1,.75.27C557.55,504.6,557.35,499.43,555.54,500.37Z" transform="translate(-437.14 -308.71)"/><path class="cls-2" d="M537.52,510.31a2.14,2.14,0,0,0-.09.34c-.73,1.05.61,3.51,1.45,2a2.1,2.1,0,0,0-.4-2.66A.62.62,0,0,0,537.52,510.31Z" transform="translate(-437.14 -308.71)"/><path class="cls-2" d="M519.69,497.91a2.12,2.12,0,0,0-.09,2.11c.24.49.86,1,1.31.4a2.12,2.12,0,0,0,.09-2.11C520.76,497.82,520.14,497.34,519.69,497.91Z" transform="translate(-437.14 -308.71)"/><path class="cls-2" d="M519.9,511.14a2.4,2.4,0,0,0,0,2.71l1.67,0a2.5,2.5,0,0,0,.19-.85,2.93,2.93,0,0,0-.28-1.4C521.19,511,520.44,510.45,519.9,511.14Z" transform="translate(-437.14 -308.71)"/><path class="cls-2" d="M551,481.28a.3.3,0,0,1-.13,0c-.67-.15-.49,1-.29,1.3a.85.85,0,0,1,.1.19c.26.57.84.48,1-.12C551.73,482.24,551.6,481.21,551,481.28Z" transform="translate(-437.14 -308.71)"/><path class="cls-2" d="M571.11,487.1a1.16,1.16,0,0,0-.6,1.13,1.7,1.7,0,0,0,0,.22c.06.34.31,1.29.87,1.14a.84.84,0,0,0,.5-.34,1.61,1.61,0,0,0,.18-1.4C572,487.5,571.58,486.77,571.11,487.1Z" transform="translate(-437.14 -308.71)"/><path class="cls-2" d="M552.24,491.43c-.87,1.1.31,4.58,1.49,3.09C554.6,493.43,553.42,489.94,552.24,491.43Z" transform="translate(-437.14 -308.71)"/><path class="cls-2" d="M547.15,493.69l-.06.06c-.43-.18-.35.74-.21.91l0,.17c.15.61.83.83,1,.1C548,494.58,547.78,493.31,547.15,493.69Z" transform="translate(-437.14 -308.71)"/><path class="cls-2" d="M588.53,447.31c-.17-.11-.46-.23-.64-.06a1.11,1.11,0,0,0-.51,1.09,2.38,2.38,0,0,0,.73,1.55c.49.46,1-.18,1.08-.63a1.89,1.89,0,0,0-.52-1.85Z" transform="translate(-437.14 -308.71)"/><path class="cls-2" d="M608.66,452.45l-.11,0c-.35-.15-.75.18-.85.5l0,0c-.44.64-.47,2.33.5,2.58a1.39,1.39,0,0,0,.41,0c.54,0,.76-.8.76-1.24v-.18A1.66,1.66,0,0,0,608.66,452.45Z" transform="translate(-437.14 -308.71)"/><path class="cls-2" d="M611.13,441.89c-1-.55-1,1.92-.53,2.37a2.08,2.08,0,0,0,.47.42c.54.33.94-.07,1.07-.62a2,2,0,0,0-.51-1.83A1.92,1.92,0,0,0,611.13,441.89Z" transform="translate(-437.14 -308.71)"/><path class="cls-2" d="M604.58,447.61c-.88,1.1.31,4.6,1.5,3.1C607,449.61,605.76,446.11,604.58,447.61Z" transform="translate(-437.14 -308.71)"/><path class="cls-2" d="M603.77,459.81h-.1a.83.83,0,0,0-.95.55l-.12.24a2.43,2.43,0,0,0,.07,2c.18.37.72,1,1.2.62a1.93,1.93,0,0,0,.77-1.57C604.69,461.15,604.44,459.89,603.77,459.81Z" transform="translate(-437.14 -308.71)"/><path class="cls-2" d="M615.76,455.42c0,.37.12,1.14.58,1.23l.25.05c.95.19,1.08-1.28.86-1.88a2.14,2.14,0,0,0-.27-.57C616.65,453.56,615.84,454.11,615.76,455.42Z" transform="translate(-437.14 -308.71)"/><path class="cls-2" d="M620,442.78c0-.18,0-.16,0,.06a2.41,2.41,0,0,0,.08,2c.21.45,1,1.09,1.37.42a2.42,2.42,0,0,0-.27-3.09C620.61,441.68,620.17,442.29,620,442.78Z" transform="translate(-437.14 -308.71)"/><path class="cls-2" d="M625.22,431.19a1.66,1.66,0,0,0-.64,1.63c.06.48.74,1.84,1.32,1a4.48,4.48,0,0,0,.32-.56C626.46,432.77,626.11,430.47,625.22,431.19Z" transform="translate(-437.14 -308.71)"/><path class="cls-2" d="M599.55,454.74c-.54.67.19,2.81.92,1.89C601,456,600.27,453.83,599.55,454.74Z" transform="translate(-437.14 -308.71)"/><path class="cls-2" d="M600.26,471.86a1.66,1.66,0,0,0-.69,1.53,2.29,2.29,0,0,0,.69,1.86c.5.39.94.05,1.2-.41a2.61,2.61,0,0,0,.21-1.56C601.62,472.7,601.07,471.36,600.26,471.86Z" transform="translate(-437.14 -308.71)"/><path class="cls-2" d="M596.08,445.49c-.5.63.18,2.63.86,1.77C597.43,446.63,596.75,444.64,596.08,445.49Z" transform="translate(-437.14 -308.71)"/><path class="cls-2" d="M503.66,475.94c-.52.06-.69.57-.7,1.11,0,0,0,0,0,0s0,.06,0,.09a2.63,2.63,0,0,0,.21,1,1.23,1.23,0,0,0,.39.49.47.47,0,0,0,.67.05.52.52,0,0,0,.24-.79c0-.29,0-.59.08-.88.05.24.1.49.14.73C504.74,477.22,504.52,475.84,503.66,475.94Z" transform="translate(-437.14 -308.71)"/><path class="cls-2" d="M505.38,473.56l.26-.1c.36-.12.33-.84.24-1.11l-.15-.43C504.73,469,503.26,474.3,505.38,473.56Z" transform="translate(-437.14 -308.71)"/><path class="cls-2" d="M497,400.57l-.11.14a2.49,2.49,0,0,0-.1,2.49c.28.58,1,1.14,1.54.47l.11-.14a2.49,2.49,0,0,0,.1-2.48C498.26,400.47,497.53,399.91,497,400.57Z" transform="translate(-437.14 -308.71)"/><path class="cls-2" d="M504.08,401.08c-.6-.17-.86.52-.9,1s0,1.84.7,1.67a.68.68,0,0,0,.47.07c.79-.2.76-1.46.44-2C504.62,401.47,504.45,401.18,504.08,401.08Z" transform="translate(-437.14 -308.71)"/><path class="cls-2" d="M560.83,378a2.25,2.25,0,0,0-.09,2.22c.25.51.9,1,1.37.42a2.23,2.23,0,0,0,.09-2.22C562,378,561.31,377.45,560.83,378Z" transform="translate(-437.14 -308.71)"/><path class="cls-2" d="M552.22,374.58c0,.63.08,1.71.86,1.86a.49.49,0,0,0,.57-.36c.56-.5.29-1.82-.08-2.3C552.92,372.93,552.25,373.84,552.22,374.58Z" transform="translate(-437.14 -308.71)"/><path class="cls-2" d="M555.87,384l0,.19c-.13.52.07,2.2,1,2l.12,0c1-.2.83-1.7.52-2.35C557,382.9,556.1,383,555.87,384Z" transform="translate(-437.14 -308.71)"/><path class="cls-2" d="M570.19,410.89c0,.06-.05.12-.07.17a2.35,2.35,0,0,0,.26,2.29l0,0a.71.71,0,0,0,.89.27.76.76,0,0,0,.4-.59l.14,0a2.33,2.33,0,0,0-.27-2.29A.76.76,0,0,0,570.19,410.89Z" transform="translate(-437.14 -308.71)"/><path class="cls-2" d="M576.13,414.45c-.46.59.17,2.44.8,1.65C577.4,415.52,576.77,413.66,576.13,414.45Z" transform="translate(-437.14 -308.71)"/><path class="cls-2" d="M570.82,418.4c-.46.59.17,2.44.8,1.65C572.08,419.47,571.45,417.61,570.82,418.4Z" transform="translate(-437.14 -308.71)"/><path class="cls-2" d="M574.62,427.13a1.8,1.8,0,0,0-.4.38,1.73,1.73,0,0,0-.07,1.73c.2.4.7.79,1.07.33a2.62,2.62,0,0,0,.33-.53C575.76,428.57,575.52,426.53,574.62,427.13Z" transform="translate(-437.14 -308.71)"/><path class="cls-2" d="M559.84,449.46c-.44.56.16,2.32.75,1.57C561,450.47,560.43,448.71,559.84,449.46Z" transform="translate(-437.14 -308.71)"/><path class="cls-2" d="M524.62,324.43c-1.2.08-.15,2.76.51,1.9l0,0c.69.27.55-1.15.33-1.43S525.05,324.41,524.62,324.43Z" transform="translate(-437.14 -308.71)"/><path class="cls-2" d="M473.72,355.16a3.52,3.52,0,0,0-.08,1.21c0,1,1,2.15,1.73,1.58l0,.05.08-.06,0,0,0,0a2.56,2.56,0,0,0,.34-3C475.18,353.69,474.08,354,473.72,355.16Z" transform="translate(-437.14 -308.71)"/><path class="cls-2" d="M481.71,355.05c-.69.87.25,3.66,1.2,2.47C483.6,356.64,482.66,353.86,481.71,355.05Z" transform="translate(-437.14 -308.71)"/><path class="cls-2" d="M482.85,352.06c-.27.35.1,1.46.48,1S483.23,351.58,482.85,352.06Z" transform="translate(-437.14 -308.71)"/></svg>